<?xml version="1.0" standalone="no"?><!DOCTYPE svg PUBLIC "-//W3C//DTD SVG 1.1//EN" "http://www.w3.org/Graphics/SVG/1.1/DTD/svg11.dtd"><svg t="1718607064800" class="icon" viewBox="0 0 1024 1024" version="1.1" xmlns="http://www.w3.org/2000/svg" p-id="3138" width="70" height="70" xmlns:xlink="http://www.w3.org/1999/xlink"><path d="M776 685.11c0 131.74-120.31 217.78-268.72 217.78s-268.67-77.11-268.67-205.78c0-50.07 10.34-94.3 67.78-163.56 101.42-122.27 73.86-250.92 73.86-250.92 64.2 15.82 182 92.21 207.76 280.5 47.52-50.89 26.1-197.42 26.1-197.42S776 454.44 776 685.11z" fill="#E9F1FF" p-id="3139"></path><path d="M515.41 965.26c-104.06 0-199.4-28.71-268.47-80.82-36.46-27.52-64.95-60.79-84.67-98.9C141.52 745.44 131 700.91 131 653.2c0-44.48 4.82-79.87 15.64-114.74 13.63-43.91 36.83-85.76 70.94-128 29.36-36.32 52.39-75.33 68.44-116a392.82 392.82 0 0 0 25.13-100c6.49-57.08-2.46-95.93-2.86-97.62A31.87 31.87 0 0 1 345 57.66c30.52 5.5 62.56 17.67 92.65 35.19 33.65 19.59 64.66 45.45 92.18 76.87 30.72 35.06 56.55 76.54 76.78 123.29a575.92 575.92 0 0 1 21.19 57.36c1-11.8 1.7-24.9 1.91-39.42a773.61 773.61 0 0 0-5.94-104.28 32 32 0 0 1 49.66-30.93c2.35 1.6 58.2 39.95 113.87 114.69a572.72 572.72 0 0 1 77.3 141.11 558.54 558.54 0 0 1 35.22 196.66c0 104.19-39.81 191.35-115.14 252-34.65 27.92-75.91 49.42-122.63 63.89-45.26 14.06-94.59 21.17-146.64 21.17zM377 133.84a421.82 421.82 0 0 1-1.93 64.61A456.31 456.31 0 0 1 346.36 316c-18.48 47.44-45.06 92.78-79 134.76C207.3 525 195 585.4 195 653.2c0 73.18 31.29 135.48 90.49 180.15 58 43.79 139.68 67.91 229.92 67.91 45.62 0 88.59-6.15 127.71-18.26 39-12.07 73.08-29.76 101.4-52.58a237.28 237.28 0 0 0 66.65-84.24c16.36-34.78 24.65-74.48 24.65-118a494.92 494.92 0 0 0-30.61-172.76 508.47 508.47 0 0 0-67.79-124.83 532 532 0 0 0-44-52.21c0.3 10.37 0.43 21.32 0.28 32.6-1.12 85.63-17.5 146.63-48.69 181.29a32 32 0 0 1-55.51-17.22c-7.61-57.67-21.62-110.37-41.64-156.65-17.59-40.63-39.85-76.48-66.18-106.53-30.74-35.09-67.35-62.17-104.68-78.03z" fill="#8322ff" p-id="3140"></path><path d="M498.47 790.07a32 32 0 0 1-32 32c-93.29 0-147.19-42.14-176-77.49-30.68-37.66-39.51-74.91-40.42-79a32 32 0 1 1 62.49-13.77c0.68 2.64 7.72 28.91 29.13 54.28 29.1 34.48 71.07 52 124.76 52a32 32 0 0 1 32.04 31.98z" fill="#8322ff" p-id="3141"></path></svg>